<mxfile host="Electron" modified="2024-03-29T20:46:40.132Z" agent="Mozilla/5.0 (X11; Linux x86_64) AppleWebKit/537.36 (KHTML, like Gecko) draw.io/24.0.4 Chrome/120.0.6099.109 Electron/28.1.0 Safari/537.36" etag="YlYvMnFVIqE4x6-LWqKo" version="24.0.4" type="device">
  <diagram name="Page-1" id="MGHjbF667yMq8NIgmSbx">
    <mxGraphModel dx="7713" dy="3703" grid="0" gridSize="10" guides="1" tooltips="1" connect="1" arrows="1" fold="1" page="0" pageScale="1" pageWidth="850" pageHeight="1100" math="0" shadow="0">
      <root>
        <mxCell id="0" />
        <mxCell id="1" parent="0" />
        <mxCell id="DqBkRv8KrqaulyezYVrb-1" value="&lt;div&gt;Ιδιοκτήτης&amp;nbsp;&lt;/div&gt;&lt;div&gt;εστιατορίου&lt;/div&gt;" style="shape=umlActor;verticalLabelPosition=bottom;verticalAlign=top;html=1;outlineConnect=0;rounded=0;" parent="1" vertex="1">
          <mxGeometry x="1370" y="-206" width="30" height="60" as="geometry" />
        </mxCell>
        <mxCell id="DqBkRv8KrqaulyezYVrb-9" value="&lt;div&gt;Πελάτης&amp;nbsp;&lt;/div&gt;&lt;div&gt;εστιατορίου&lt;/div&gt;" style="shape=umlActor;verticalLabelPosition=bottom;verticalAlign=top;html=1;outlineConnect=0;rounded=0;" parent="1" vertex="1">
          <mxGeometry x="286" y="2" width="30" height="60" as="geometry" />
        </mxCell>
        <mxCell id="DqBkRv8KrqaulyezYVrb-10" value="Σερβιτόρος" style="shape=umlActor;verticalLabelPosition=bottom;verticalAlign=top;html=1;outlineConnect=0;rounded=0;" parent="1" vertex="1">
          <mxGeometry x="296" y="293" width="30" height="60" as="geometry" />
        </mxCell>
        <mxCell id="DqBkRv8KrqaulyezYVrb-11" value="Μάγειρας" style="shape=umlActor;verticalLabelPosition=bottom;verticalAlign=top;html=1;outlineConnect=0;rounded=0;" parent="1" vertex="1">
          <mxGeometry x="1272" y="37" width="30" height="60" as="geometry" />
        </mxCell>
        <mxCell id="DqBkRv8KrqaulyezYVrb-12" value="Ταμείας" style="shape=umlActor;verticalLabelPosition=bottom;verticalAlign=top;html=1;outlineConnect=0;rounded=0;" parent="1" vertex="1">
          <mxGeometry x="1266" y="391" width="30" height="60" as="geometry" />
        </mxCell>
        <mxCell id="DqBkRv8KrqaulyezYVrb-16" value="Διανομέας" style="shape=umlActor;verticalLabelPosition=bottom;verticalAlign=top;html=1;outlineConnect=0;rounded=0;" parent="1" vertex="1">
          <mxGeometry x="1272" y="276" width="30" height="60" as="geometry" />
        </mxCell>
        <mxCell id="DqBkRv8KrqaulyezYVrb-17" value="Παραγγελία" style="ellipse;whiteSpace=wrap;html=1;strokeWidth=5;rounded=0;" parent="1" vertex="1">
          <mxGeometry x="663" y="162" width="120" height="80" as="geometry" />
        </mxCell>
        <mxCell id="DqBkRv8KrqaulyezYVrb-18" value="&lt;div&gt;Πληρωμή&lt;/div&gt;&lt;div&gt;φαγητού&lt;br&gt;&lt;/div&gt;" style="ellipse;whiteSpace=wrap;html=1;rounded=0;" parent="1" vertex="1">
          <mxGeometry x="798" y="403" width="120" height="80" as="geometry" />
        </mxCell>
        <mxCell id="DqBkRv8KrqaulyezYVrb-21" value="&lt;div&gt;Επιλογή&lt;/div&gt;&lt;div&gt;καταστήματος&lt;br&gt;&lt;/div&gt;" style="ellipse;whiteSpace=wrap;html=1;strokeWidth=6;rounded=0;" parent="1" vertex="1">
          <mxGeometry x="429" y="-428.5" width="120" height="80" as="geometry" />
        </mxCell>
        <mxCell id="DqBkRv8KrqaulyezYVrb-22" value="Κράτηση" style="ellipse;whiteSpace=wrap;html=1;rounded=0;strokeWidth=6;" parent="1" vertex="1">
          <mxGeometry x="549" y="-304" width="120" height="80" as="geometry" />
        </mxCell>
        <mxCell id="DqBkRv8KrqaulyezYVrb-23" value="Προβολή&lt;div&gt;μενου&lt;/div&gt;" style="ellipse;whiteSpace=wrap;html=1;rounded=0;" parent="1" vertex="1">
          <mxGeometry x="621" y="-99" width="120" height="80" as="geometry" />
        </mxCell>
        <mxCell id="DqBkRv8KrqaulyezYVrb-24" value="Check-in" style="ellipse;whiteSpace=wrap;html=1;strokeWidth=6;rounded=0;" parent="1" vertex="1">
          <mxGeometry x="571" y="37" width="120" height="80" as="geometry" />
        </mxCell>
        <mxCell id="DqBkRv8KrqaulyezYVrb-27" value="Check-out" style="ellipse;whiteSpace=wrap;html=1;strokeWidth=6;rounded=0;" parent="1" vertex="1">
          <mxGeometry x="465" y="396" width="120" height="80" as="geometry" />
        </mxCell>
        <mxCell id="DqBkRv8KrqaulyezYVrb-28" value="&lt;div&gt;Σκανάρισμα&lt;br&gt;QR code&lt;br&gt;&lt;/div&gt;" style="ellipse;whiteSpace=wrap;html=1;rounded=0;" parent="1" vertex="1">
          <mxGeometry x="786" y="12" width="120" height="80" as="geometry" />
        </mxCell>
        <mxCell id="DqBkRv8KrqaulyezYVrb-32" value="&lt;div&gt;Προβολή&lt;/div&gt;&lt;div&gt;ιστορικού παραγγελιών&lt;br&gt;&lt;/div&gt;" style="ellipse;whiteSpace=wrap;html=1;rounded=0;" parent="1" vertex="1">
          <mxGeometry x="418" y="-200" width="120" height="80" as="geometry" />
        </mxCell>
        <mxCell id="DqBkRv8KrqaulyezYVrb-34" value="&lt;div&gt;Προβολή εβδομαδιαίου&lt;/div&gt;&lt;div&gt;προγράμματος&lt;br&gt;&lt;/div&gt;" style="ellipse;whiteSpace=wrap;html=1;strokeWidth=6;rounded=0;" parent="1" vertex="1">
          <mxGeometry x="987" y="12" width="120" height="80" as="geometry" />
        </mxCell>
        <mxCell id="DqBkRv8KrqaulyezYVrb-35" value="&lt;div&gt;Προβολή &lt;br&gt;&lt;/div&gt;&lt;div&gt;εκκρεμών&lt;/div&gt;&lt;div&gt;Tasks&lt;/div&gt;" style="ellipse;whiteSpace=wrap;html=1;strokeWidth=6;rounded=0;" parent="1" vertex="1">
          <mxGeometry x="974" y="216" width="120" height="80" as="geometry" />
        </mxCell>
        <mxCell id="DqBkRv8KrqaulyezYVrb-41" value="&lt;div&gt;Διαχείριση&lt;/div&gt;&lt;div&gt;αποθήκης&lt;/div&gt;" style="ellipse;whiteSpace=wrap;html=1;strokeWidth=6;rounded=0;" parent="1" vertex="1">
          <mxGeometry x="1102" y="-178" width="120" height="80" as="geometry" />
        </mxCell>
        <mxCell id="DqBkRv8KrqaulyezYVrb-58" value="" style="endArrow=none;html=1;rounded=0;entryX=0;entryY=0.5;entryDx=0;entryDy=0;" parent="1" source="DqBkRv8KrqaulyezYVrb-9" target="DqBkRv8KrqaulyezYVrb-21" edge="1">
          <mxGeometry width="50" height="50" relative="1" as="geometry">
            <mxPoint x="304" y="90" as="sourcePoint" />
            <mxPoint x="727" y="-176" as="targetPoint" />
          </mxGeometry>
        </mxCell>
        <mxCell id="DqBkRv8KrqaulyezYVrb-61" value="" style="endArrow=none;html=1;rounded=0;entryX=0;entryY=0.5;entryDx=0;entryDy=0;" parent="1" source="DqBkRv8KrqaulyezYVrb-9" target="DqBkRv8KrqaulyezYVrb-17" edge="1">
          <mxGeometry width="50" height="50" relative="1" as="geometry">
            <mxPoint x="321" y="150.20999999999998" as="sourcePoint" />
            <mxPoint x="732" y="281.21" as="targetPoint" />
          </mxGeometry>
        </mxCell>
        <mxCell id="DqBkRv8KrqaulyezYVrb-68" value="" style="endArrow=none;html=1;rounded=0;entryX=0;entryY=0.5;entryDx=0;entryDy=0;" parent="1" source="DqBkRv8KrqaulyezYVrb-9" target="DqBkRv8KrqaulyezYVrb-32" edge="1">
          <mxGeometry width="50" height="50" relative="1" as="geometry">
            <mxPoint x="301" y="45" as="sourcePoint" />
            <mxPoint x="732" y="-296" as="targetPoint" />
          </mxGeometry>
        </mxCell>
        <mxCell id="DqBkRv8KrqaulyezYVrb-72" value="" style="endArrow=none;html=1;rounded=0;exitX=1;exitY=0.5;exitDx=0;exitDy=0;" parent="1" source="DqBkRv8KrqaulyezYVrb-41" target="DqBkRv8KrqaulyezYVrb-1" edge="1">
          <mxGeometry width="50" height="50" relative="1" as="geometry">
            <mxPoint x="1156" y="-5" as="sourcePoint" />
            <mxPoint x="1206" y="-55" as="targetPoint" />
          </mxGeometry>
        </mxCell>
        <mxCell id="DqBkRv8KrqaulyezYVrb-79" value="" style="endArrow=none;html=1;rounded=0;exitX=1;exitY=0.5;exitDx=0;exitDy=0;" parent="1" source="DqBkRv8KrqaulyezYVrb-18" target="DqBkRv8KrqaulyezYVrb-16" edge="1">
          <mxGeometry width="50" height="50" relative="1" as="geometry">
            <mxPoint x="966" y="359" as="sourcePoint" />
            <mxPoint x="1354" y="243" as="targetPoint" />
          </mxGeometry>
        </mxCell>
        <mxCell id="DqBkRv8KrqaulyezYVrb-80" value="" style="endArrow=none;html=1;rounded=0;exitX=1;exitY=0.5;exitDx=0;exitDy=0;" parent="1" source="DqBkRv8KrqaulyezYVrb-18" target="DqBkRv8KrqaulyezYVrb-12" edge="1">
          <mxGeometry width="50" height="50" relative="1" as="geometry">
            <mxPoint x="966" y="273" as="sourcePoint" />
            <mxPoint x="1354" y="157" as="targetPoint" />
          </mxGeometry>
        </mxCell>
        <mxCell id="DqBkRv8KrqaulyezYVrb-110" value="" style="rounded=0;whiteSpace=wrap;html=1;fillColor=none;noLabel=0;editable=1;movable=1;resizable=1;rotatable=1;deletable=1;locked=0;connectable=1;pointerEvents=0;" parent="1" vertex="1">
          <mxGeometry x="-714" y="-755" width="865" height="1269" as="geometry" />
        </mxCell>
        <mxCell id="DqBkRv8KrqaulyezYVrb-111" value="&lt;font style=&quot;font-size: 60px;&quot;&gt;Εστιατόριο&lt;/font&gt;" style="text;html=1;align=center;verticalAlign=middle;whiteSpace=wrap;rounded=0;" parent="1" vertex="1">
          <mxGeometry x="637.5" y="-662" width="341" height="66.5" as="geometry" />
        </mxCell>
        <mxCell id="E7eFKCQ7DTerx9ZcQntK-2" value="" style="endArrow=none;html=1;rounded=0;entryX=0;entryY=0.5;entryDx=0;entryDy=0;" parent="1" source="DqBkRv8KrqaulyezYVrb-10" target="DqBkRv8KrqaulyezYVrb-27" edge="1">
          <mxGeometry width="50" height="50" relative="1" as="geometry">
            <mxPoint x="313" y="334" as="sourcePoint" />
            <mxPoint x="758" y="436" as="targetPoint" />
          </mxGeometry>
        </mxCell>
        <mxCell id="E7eFKCQ7DTerx9ZcQntK-3" value="" style="endArrow=none;html=1;rounded=0;entryX=0;entryY=0.5;entryDx=0;entryDy=0;" parent="1" source="DqBkRv8KrqaulyezYVrb-9" target="DqBkRv8KrqaulyezYVrb-27" edge="1">
          <mxGeometry width="50" height="50" relative="1" as="geometry">
            <mxPoint x="332" y="251" as="sourcePoint" />
            <mxPoint x="494" y="220" as="targetPoint" />
          </mxGeometry>
        </mxCell>
        <mxCell id="E7eFKCQ7DTerx9ZcQntK-9" value="" style="endArrow=none;html=1;rounded=0;entryX=0;entryY=0.5;entryDx=0;entryDy=0;" parent="1" source="DqBkRv8KrqaulyezYVrb-10" target="DqBkRv8KrqaulyezYVrb-24" edge="1">
          <mxGeometry width="50" height="50" relative="1" as="geometry">
            <mxPoint x="345" y="259" as="sourcePoint" />
            <mxPoint x="507" y="228" as="targetPoint" />
          </mxGeometry>
        </mxCell>
        <mxCell id="E7eFKCQ7DTerx9ZcQntK-10" value="" style="endArrow=none;html=1;rounded=0;exitX=1;exitY=0;exitDx=0;exitDy=0;" parent="1" source="DqBkRv8KrqaulyezYVrb-34" target="DqBkRv8KrqaulyezYVrb-1" edge="1">
          <mxGeometry width="50" height="50" relative="1" as="geometry">
            <mxPoint x="843" y="-16" as="sourcePoint" />
            <mxPoint x="1358" y="-121" as="targetPoint" />
          </mxGeometry>
        </mxCell>
        <mxCell id="E7eFKCQ7DTerx9ZcQntK-23" value="Προβολη&amp;nbsp;&lt;div&gt;λογαριασμου&lt;/div&gt;&lt;div&gt;φαγητου&lt;/div&gt;" style="ellipse;whiteSpace=wrap;html=1;rounded=0;" parent="1" vertex="1">
          <mxGeometry x="783" y="504" width="120" height="80" as="geometry" />
        </mxCell>
        <mxCell id="E7eFKCQ7DTerx9ZcQntK-25" value="Αξιολογηση&lt;div&gt;εστιατοριων&lt;/div&gt;" style="ellipse;whiteSpace=wrap;html=1;rounded=0;" parent="1" vertex="1">
          <mxGeometry x="676" y="-375" width="120" height="80" as="geometry" />
        </mxCell>
        <mxCell id="E7eFKCQ7DTerx9ZcQntK-35" value="" style="endArrow=none;html=1;rounded=0;exitX=1;exitY=1;exitDx=0;exitDy=0;" parent="1" source="DqBkRv8KrqaulyezYVrb-41" target="DqBkRv8KrqaulyezYVrb-11" edge="1">
          <mxGeometry width="50" height="50" relative="1" as="geometry">
            <mxPoint x="1417" y="125" as="sourcePoint" />
            <mxPoint x="1932" y="316" as="targetPoint" />
          </mxGeometry>
        </mxCell>
        <mxCell id="E6P0ZzLm57Q9IFtv4wpY-99" value="" style="endArrow=none;html=1;rounded=0;entryX=0;entryY=0.5;entryDx=0;entryDy=0;" parent="1" source="DqBkRv8KrqaulyezYVrb-9" target="DqBkRv8KrqaulyezYVrb-24" edge="1">
          <mxGeometry width="50" height="50" relative="1" as="geometry">
            <mxPoint x="153" y="378" as="sourcePoint" />
            <mxPoint x="379" y="40" as="targetPoint" />
          </mxGeometry>
        </mxCell>
        <mxCell id="E6P0ZzLm57Q9IFtv4wpY-104" value="&amp;lt;&amp;lt;include&amp;gt;&amp;gt;" style="endArrow=open;endSize=12;dashed=1;html=1;rounded=0;exitX=0;exitY=0.5;exitDx=0;exitDy=0;entryX=1;entryY=0.5;entryDx=0;entryDy=0;" parent="1" source="DqBkRv8KrqaulyezYVrb-28" target="DqBkRv8KrqaulyezYVrb-24" edge="1">
          <mxGeometry width="160" relative="1" as="geometry">
            <mxPoint x="66" y="176" as="sourcePoint" />
            <mxPoint x="226" y="176" as="targetPoint" />
          </mxGeometry>
        </mxCell>
        <mxCell id="E6P0ZzLm57Q9IFtv4wpY-108" value="&lt;div&gt;Περιγραφή&lt;br&gt;καταστήματος&lt;br&gt;&lt;/div&gt;" style="ellipse;whiteSpace=wrap;html=1;rounded=0;" parent="1" vertex="1">
          <mxGeometry x="586" y="-570" width="120" height="80" as="geometry" />
        </mxCell>
        <mxCell id="E6P0ZzLm57Q9IFtv4wpY-109" value="&amp;lt;&amp;lt;extend&amp;gt;&amp;gt;" style="endArrow=open;endSize=12;dashed=1;html=1;rounded=0;exitX=0;exitY=0.5;exitDx=0;exitDy=0;entryX=0.5;entryY=0;entryDx=0;entryDy=0;" parent="1" source="E6P0ZzLm57Q9IFtv4wpY-108" target="DqBkRv8KrqaulyezYVrb-21" edge="1">
          <mxGeometry width="160" relative="1" as="geometry">
            <mxPoint x="828.79" y="-309" as="sourcePoint" />
            <mxPoint x="660.79" y="-280" as="targetPoint" />
          </mxGeometry>
        </mxCell>
        <mxCell id="E6P0ZzLm57Q9IFtv4wpY-110" value="&amp;lt;&amp;lt;extend&amp;gt;&amp;gt;" style="endArrow=open;endSize=12;dashed=1;html=1;rounded=0;exitX=0;exitY=0.5;exitDx=0;exitDy=0;entryX=1;entryY=1;entryDx=0;entryDy=0;" parent="1" source="E7eFKCQ7DTerx9ZcQntK-25" target="DqBkRv8KrqaulyezYVrb-21" edge="1">
          <mxGeometry width="160" relative="1" as="geometry">
            <mxPoint x="647" y="-216.72" as="sourcePoint" />
            <mxPoint x="604" y="-185.72" as="targetPoint" />
          </mxGeometry>
        </mxCell>
        <mxCell id="E6P0ZzLm57Q9IFtv4wpY-111" value="&amp;lt;&amp;lt;extend&amp;gt;&amp;gt;" style="endArrow=open;endSize=12;dashed=1;html=1;rounded=0;exitX=0;exitY=0.5;exitDx=0;exitDy=0;entryX=1;entryY=0.5;entryDx=0;entryDy=0;" parent="1" source="DqBkRv8KrqaulyezYVrb-18" target="DqBkRv8KrqaulyezYVrb-27" edge="1">
          <mxGeometry width="160" relative="1" as="geometry">
            <mxPoint x="741.93" y="394.28" as="sourcePoint" />
            <mxPoint x="582.93" y="349.28" as="targetPoint" />
          </mxGeometry>
        </mxCell>
        <mxCell id="E6P0ZzLm57Q9IFtv4wpY-115" value="" style="endArrow=none;html=1;rounded=0;exitX=1;exitY=0.5;exitDx=0;exitDy=0;" parent="1" source="DqBkRv8KrqaulyezYVrb-34" target="E6P0ZzLm57Q9IFtv4wpY-114" edge="1">
          <mxGeometry width="50" height="50" relative="1" as="geometry">
            <mxPoint x="1392.5" y="224" as="sourcePoint" />
            <mxPoint x="1941.5" y="539" as="targetPoint" />
          </mxGeometry>
        </mxCell>
        <mxCell id="E6P0ZzLm57Q9IFtv4wpY-116" value="" style="endArrow=none;html=1;rounded=0;exitX=1;exitY=0.5;exitDx=0;exitDy=0;" parent="1" source="DqBkRv8KrqaulyezYVrb-17" target="E6P0ZzLm57Q9IFtv4wpY-114" edge="1">
          <mxGeometry width="50" height="50" relative="1" as="geometry">
            <mxPoint x="851" y="246" as="sourcePoint" />
            <mxPoint x="1783.5" y="686" as="targetPoint" />
          </mxGeometry>
        </mxCell>
        <mxCell id="E6P0ZzLm57Q9IFtv4wpY-117" value="" style="endArrow=none;html=1;rounded=0;exitX=1;exitY=0.5;exitDx=0;exitDy=0;" parent="1" source="DqBkRv8KrqaulyezYVrb-35" target="E6P0ZzLm57Q9IFtv4wpY-114" edge="1">
          <mxGeometry width="50" height="50" relative="1" as="geometry">
            <mxPoint x="753" y="439" as="sourcePoint" />
            <mxPoint x="1776.5" y="775" as="targetPoint" />
          </mxGeometry>
        </mxCell>
        <mxCell id="E6P0ZzLm57Q9IFtv4wpY-121" value="" style="endArrow=block;endSize=16;endFill=0;html=1;rounded=0;exitX=1;exitY=0.3333333333333333;exitDx=0;exitDy=0;exitPerimeter=0;" parent="1" source="DqBkRv8KrqaulyezYVrb-11" target="E6P0ZzLm57Q9IFtv4wpY-114" edge="1">
          <mxGeometry width="160" relative="1" as="geometry">
            <mxPoint x="1552" y="332" as="sourcePoint" />
            <mxPoint x="1353" y="167" as="targetPoint" />
          </mxGeometry>
        </mxCell>
        <mxCell id="E6P0ZzLm57Q9IFtv4wpY-122" value="" style="endArrow=block;endSize=16;endFill=0;html=1;rounded=0;exitX=1;exitY=0.3333333333333333;exitDx=0;exitDy=0;exitPerimeter=0;" parent="1" source="DqBkRv8KrqaulyezYVrb-12" target="E6P0ZzLm57Q9IFtv4wpY-114" edge="1">
          <mxGeometry width="160" relative="1" as="geometry">
            <mxPoint x="1426" y="387" as="sourcePoint" />
            <mxPoint x="1586" y="387" as="targetPoint" />
          </mxGeometry>
        </mxCell>
        <mxCell id="E6P0ZzLm57Q9IFtv4wpY-123" value="" style="endArrow=block;endSize=16;endFill=0;html=1;rounded=0;exitX=1;exitY=0.3333333333333333;exitDx=0;exitDy=0;exitPerimeter=0;curved=0;" parent="1" source="DqBkRv8KrqaulyezYVrb-16" target="E6P0ZzLm57Q9IFtv4wpY-114" edge="1">
          <mxGeometry width="160" relative="1" as="geometry">
            <mxPoint x="1423" y="465" as="sourcePoint" />
            <mxPoint x="1583" y="465" as="targetPoint" />
          </mxGeometry>
        </mxCell>
        <mxCell id="E6P0ZzLm57Q9IFtv4wpY-202" value="Χάρτης" style="ellipse;whiteSpace=wrap;html=1;rounded=0;" parent="1" vertex="1">
          <mxGeometry x="681" y="-482" width="120" height="80" as="geometry" />
        </mxCell>
        <mxCell id="E6P0ZzLm57Q9IFtv4wpY-203" value="&amp;lt;&amp;lt;extend&amp;gt;&amp;gt;" style="endArrow=open;endSize=12;dashed=1;html=1;rounded=0;exitX=0;exitY=0.5;exitDx=0;exitDy=0;entryX=1;entryY=0;entryDx=0;entryDy=0;" parent="1" source="E6P0ZzLm57Q9IFtv4wpY-202" target="DqBkRv8KrqaulyezYVrb-21" edge="1">
          <mxGeometry width="160" relative="1" as="geometry">
            <mxPoint x="731.57" y="-337.5" as="sourcePoint" />
            <mxPoint x="652.57" y="-290.5" as="targetPoint" />
          </mxGeometry>
        </mxCell>
        <mxCell id="E6P0ZzLm57Q9IFtv4wpY-206" value="&amp;lt;&amp;lt;extend&amp;gt;&amp;gt;" style="endArrow=open;endSize=12;dashed=1;html=1;rounded=0;exitX=0;exitY=0.5;exitDx=0;exitDy=0;entryX=1;entryY=1;entryDx=0;entryDy=0;" parent="1" source="E7eFKCQ7DTerx9ZcQntK-23" target="DqBkRv8KrqaulyezYVrb-27" edge="1">
          <mxGeometry width="160" relative="1" as="geometry">
            <mxPoint x="841" y="534" as="sourcePoint" />
            <mxPoint x="679" y="531" as="targetPoint" />
          </mxGeometry>
        </mxCell>
        <mxCell id="E6P0ZzLm57Q9IFtv4wpY-269" value="&lt;div&gt;Διαχείριση&lt;br&gt;&lt;/div&gt;&lt;div&gt;λογαριασμού&lt;/div&gt;&lt;div&gt;εστιατοριου&lt;/div&gt;" style="ellipse;whiteSpace=wrap;html=1;strokeWidth=6;" parent="1" vertex="1">
          <mxGeometry x="1131" y="-461" width="120" height="80" as="geometry" />
        </mxCell>
        <mxCell id="E6P0ZzLm57Q9IFtv4wpY-270" value="&amp;lt;&amp;lt;extend&amp;gt;&amp;gt;" style="endArrow=open;endSize=12;dashed=1;html=1;rounded=0;entryX=0;entryY=1;entryDx=0;entryDy=0;exitX=1;exitY=1;exitDx=0;exitDy=0;" parent="1" source="EOsgOCOBXihUaQ4r7z8H-37" target="E6P0ZzLm57Q9IFtv4wpY-269" edge="1">
          <mxGeometry width="160" relative="1" as="geometry">
            <mxPoint x="1251" y="-487" as="sourcePoint" />
            <mxPoint x="1278" y="-483.5" as="targetPoint" />
          </mxGeometry>
        </mxCell>
        <mxCell id="E6P0ZzLm57Q9IFtv4wpY-273" value="&amp;lt;&amp;lt;extend&amp;gt;&amp;gt;" style="endArrow=open;endSize=12;dashed=1;html=1;rounded=0;exitX=0;exitY=0.5;exitDx=0;exitDy=0;entryX=1;entryY=0.5;entryDx=0;entryDy=0;" parent="1" source="DqBkRv8KrqaulyezYVrb-20" edge="1">
          <mxGeometry width="160" relative="1" as="geometry">
            <mxPoint x="1452" y="-284" as="sourcePoint" />
            <mxPoint x="892" y="-525" as="targetPoint" />
          </mxGeometry>
        </mxCell>
        <mxCell id="E6P0ZzLm57Q9IFtv4wpY-274" value="" style="endArrow=none;html=1;rounded=0;exitX=1;exitY=1;exitDx=0;exitDy=0;" parent="1" source="E6P0ZzLm57Q9IFtv4wpY-269" target="DqBkRv8KrqaulyezYVrb-1" edge="1">
          <mxGeometry width="50" height="50" relative="1" as="geometry">
            <mxPoint x="1194" y="-240" as="sourcePoint" />
            <mxPoint x="1404" y="-240" as="targetPoint" />
          </mxGeometry>
        </mxCell>
        <mxCell id="E6P0ZzLm57Q9IFtv4wpY-275" value="Ενημερωση&lt;div&gt;χαμηλης ποσότητας&lt;/div&gt;" style="ellipse;whiteSpace=wrap;html=1;" parent="1" vertex="1">
          <mxGeometry x="889" y="-218" width="120" height="80" as="geometry" />
        </mxCell>
        <mxCell id="E6P0ZzLm57Q9IFtv4wpY-276" value="&amp;lt;&amp;lt;extend&amp;gt;&amp;gt;" style="endArrow=open;endSize=12;dashed=1;html=1;rounded=0;exitX=1;exitY=0.5;exitDx=0;exitDy=0;entryX=0;entryY=0;entryDx=0;entryDy=0;" parent="1" source="E6P0ZzLm57Q9IFtv4wpY-275" target="DqBkRv8KrqaulyezYVrb-41" edge="1">
          <mxGeometry width="160" relative="1" as="geometry">
            <mxPoint x="1302" y="-359" as="sourcePoint" />
            <mxPoint x="1297" y="-465" as="targetPoint" />
          </mxGeometry>
        </mxCell>
        <mxCell id="E6P0ZzLm57Q9IFtv4wpY-277" value="&amp;lt;&amp;lt;extend&amp;gt;&amp;gt;" style="endArrow=open;endSize=12;dashed=1;html=1;rounded=0;exitX=1;exitY=0;exitDx=0;exitDy=0;entryX=0;entryY=1;entryDx=0;entryDy=0;" parent="1" source="E6P0ZzLm57Q9IFtv4wpY-278" target="DqBkRv8KrqaulyezYVrb-41" edge="1">
          <mxGeometry width="160" relative="1" as="geometry">
            <mxPoint x="1357" y="-263" as="sourcePoint" />
            <mxPoint x="1164" y="-80" as="targetPoint" />
          </mxGeometry>
        </mxCell>
        <mxCell id="E6P0ZzLm57Q9IFtv4wpY-278" value="Αυτοματοποιημενη&lt;div&gt;παραγγελια σε&lt;/div&gt;&lt;div&gt;προμηθευτη&lt;/div&gt;" style="ellipse;whiteSpace=wrap;html=1;" parent="1" vertex="1">
          <mxGeometry x="906" y="-91" width="120" height="80" as="geometry" />
        </mxCell>
        <mxCell id="EOsgOCOBXihUaQ4r7z8H-1" value="&amp;lt;&amp;lt;extend&amp;gt;&amp;gt;" style="endArrow=open;endSize=12;dashed=1;html=1;rounded=0;exitX=0;exitY=0;exitDx=0;exitDy=0;entryX=0.5;entryY=1;entryDx=0;entryDy=0;" edge="1" parent="1" source="DqBkRv8KrqaulyezYVrb-22" target="DqBkRv8KrqaulyezYVrb-21">
          <mxGeometry width="160" relative="1" as="geometry">
            <mxPoint x="537.57" y="-245.78" as="sourcePoint" />
            <mxPoint x="465.57" y="-292.78" as="targetPoint" />
          </mxGeometry>
        </mxCell>
        <mxCell id="EOsgOCOBXihUaQ4r7z8H-2" value="" style="endArrow=block;endSize=16;endFill=0;html=1;rounded=0;exitX=1;exitY=1;exitDx=0;exitDy=0;exitPerimeter=0;" edge="1" parent="1" source="DqBkRv8KrqaulyezYVrb-10" target="E6P0ZzLm57Q9IFtv4wpY-114">
          <mxGeometry width="160" relative="1" as="geometry">
            <mxPoint x="431" y="660" as="sourcePoint" />
            <mxPoint x="591" y="660" as="targetPoint" />
            <Array as="points">
              <mxPoint x="326" y="717" />
              <mxPoint x="852" y="720" />
              <mxPoint x="1383" y="724" />
            </Array>
          </mxGeometry>
        </mxCell>
        <mxCell id="E6P0ZzLm57Q9IFtv4wpY-114" value="Υπάλληλος" style="shape=umlActor;verticalLabelPosition=bottom;verticalAlign=top;html=1;outlineConnect=0;rounded=0;perimeterSpacing=0;shadow=0;textShadow=0;labelPadding=0;perimeter=rectanglePerimeter;container=0;fixDash=0;comic=0;movableLabel=0;" parent="1" vertex="1">
          <mxGeometry x="1370" y="172" width="30" height="60" as="geometry">
            <mxPoint x="39" as="offset" />
          </mxGeometry>
        </mxCell>
        <mxCell id="EOsgOCOBXihUaQ4r7z8H-3" value="Προβολή&lt;div&gt;στατιστικών&lt;/div&gt;" style="ellipse;whiteSpace=wrap;html=1;" vertex="1" parent="1">
          <mxGeometry x="856" y="-451" width="120" height="80" as="geometry" />
        </mxCell>
        <mxCell id="EOsgOCOBXihUaQ4r7z8H-4" value="&amp;lt;&amp;lt;extend&amp;gt;&amp;gt;" style="endArrow=open;endSize=12;dashed=1;html=1;rounded=0;exitX=0.992;exitY=0.425;exitDx=0;exitDy=0;entryX=0;entryY=0.5;entryDx=0;entryDy=0;exitPerimeter=0;" edge="1" parent="1" source="EOsgOCOBXihUaQ4r7z8H-3" target="E6P0ZzLm57Q9IFtv4wpY-269">
          <mxGeometry width="160" relative="1" as="geometry">
            <mxPoint x="1214.5735931288073" y="-330.7157287525383" as="sourcePoint" />
            <mxPoint x="1041" y="-352" as="targetPoint" />
          </mxGeometry>
        </mxCell>
        <mxCell id="EOsgOCOBXihUaQ4r7z8H-5" value="Check-in" style="ellipse;whiteSpace=wrap;html=1;strokeWidth=6;rounded=0;" vertex="1" parent="1">
          <mxGeometry x="1951" y="-304" width="120" height="80" as="geometry" />
        </mxCell>
        <mxCell id="EOsgOCOBXihUaQ4r7z8H-6" value="Σκανάρισμα &lt;br&gt;QR code" style="ellipse;whiteSpace=wrap;html=1;rounded=0;" vertex="1" parent="1">
          <mxGeometry x="1742" y="-458" width="120" height="80" as="geometry" />
        </mxCell>
        <mxCell id="EOsgOCOBXihUaQ4r7z8H-7" value="&lt;div&gt;Προβολή&lt;/div&gt;&lt;div&gt;μενού&lt;br&gt;&lt;/div&gt;" style="ellipse;whiteSpace=wrap;html=1;rounded=0;" vertex="1" parent="1">
          <mxGeometry x="1930" y="-611" width="120" height="80" as="geometry" />
        </mxCell>
        <mxCell id="EOsgOCOBXihUaQ4r7z8H-8" value="&lt;div&gt;Κάλεσμα/ενημέρωση&lt;/div&gt;&lt;div&gt;σερβιτόρου&lt;br&gt;&lt;/div&gt;" style="ellipse;whiteSpace=wrap;html=1;rounded=0;" vertex="1" parent="1">
          <mxGeometry x="2181" y="-458" width="120" height="80" as="geometry" />
        </mxCell>
        <mxCell id="EOsgOCOBXihUaQ4r7z8H-35" value="&lt;div&gt;Προτασεις&lt;/div&gt;&lt;div&gt;φαγητων&lt;/div&gt;" style="ellipse;whiteSpace=wrap;html=1;rounded=0;strokeWidth=6;" vertex="1" parent="1">
          <mxGeometry x="681" y="-273" width="120" height="80" as="geometry" />
        </mxCell>
        <mxCell id="EOsgOCOBXihUaQ4r7z8H-37" value="Subscriptions&lt;div&gt;πελατων&lt;/div&gt;" style="ellipse;whiteSpace=wrap;html=1;" vertex="1" parent="1">
          <mxGeometry x="858.5" y="-335" width="120" height="80" as="geometry" />
        </mxCell>
        <mxCell id="EOsgOCOBXihUaQ4r7z8H-41" value="&amp;lt;&amp;lt;extend&amp;gt;&amp;gt;" style="endArrow=open;endSize=12;dashed=1;html=1;rounded=0;exitX=0;exitY=0.5;exitDx=0;exitDy=0;entryX=1;entryY=0.5;entryDx=0;entryDy=0;" edge="1" parent="1" source="EOsgOCOBXihUaQ4r7z8H-35" target="DqBkRv8KrqaulyezYVrb-32">
          <mxGeometry width="160" relative="1" as="geometry">
            <mxPoint x="599" y="-157.5" as="sourcePoint" />
            <mxPoint x="521" y="-213.5" as="targetPoint" />
          </mxGeometry>
        </mxCell>
        <mxCell id="EOsgOCOBXihUaQ4r7z8H-42" value="Online&lt;br&gt;Παραγγελία" style="ellipse;whiteSpace=wrap;html=1;rounded=0;" vertex="1" parent="1">
          <mxGeometry x="769" y="301" width="120" height="80" as="geometry" />
        </mxCell>
        <mxCell id="EOsgOCOBXihUaQ4r7z8H-43" value="&amp;lt;&amp;lt;extend&amp;gt;&amp;gt;" style="endArrow=open;endSize=12;dashed=1;html=1;rounded=0;exitX=1;exitY=1;exitDx=0;exitDy=0;entryX=0.5;entryY=0;entryDx=0;entryDy=0;" edge="1" parent="1" source="DqBkRv8KrqaulyezYVrb-17" target="EOsgOCOBXihUaQ4r7z8H-42">
          <mxGeometry width="160" relative="1" as="geometry">
            <mxPoint x="901.5735931288073" y="238.00427124746167" as="sourcePoint" />
            <mxPoint x="812" y="365.72" as="targetPoint" />
          </mxGeometry>
        </mxCell>
        <mxCell id="EOsgOCOBXihUaQ4r7z8H-44" value="Offline&lt;br&gt;Παραγγελία" style="ellipse;whiteSpace=wrap;html=1;rounded=0;" vertex="1" parent="1">
          <mxGeometry x="538" y="286" width="120" height="80" as="geometry" />
        </mxCell>
        <mxCell id="EOsgOCOBXihUaQ4r7z8H-45" value="&amp;lt;&amp;lt;extend&amp;gt;&amp;gt;" style="endArrow=open;endSize=12;dashed=1;html=1;rounded=0;exitX=0.169;exitY=0.962;exitDx=0;exitDy=0;entryX=0.5;entryY=0;entryDx=0;entryDy=0;exitPerimeter=0;" edge="1" target="EOsgOCOBXihUaQ4r7z8H-44" parent="1" source="DqBkRv8KrqaulyezYVrb-17">
          <mxGeometry width="160" relative="1" as="geometry">
            <mxPoint x="461.42640687119274" y="153.00427124746213" as="sourcePoint" />
            <mxPoint x="477" y="292.44000000000005" as="targetPoint" />
          </mxGeometry>
        </mxCell>
        <mxCell id="EOsgOCOBXihUaQ4r7z8H-46" value="" style="endArrow=none;html=1;rounded=0;exitX=1;exitY=0.5;exitDx=0;exitDy=0;" edge="1" parent="1" source="EOsgOCOBXihUaQ4r7z8H-42" target="DqBkRv8KrqaulyezYVrb-16">
          <mxGeometry width="50" height="50" relative="1" as="geometry">
            <mxPoint x="901" y="422.43" as="sourcePoint" />
            <mxPoint x="1255" y="291.43" as="targetPoint" />
          </mxGeometry>
        </mxCell>
        <mxCell id="EOsgOCOBXihUaQ4r7z8H-59" value="Λογιστηκα&lt;div&gt;Εσοδα/εξοδα&lt;br&gt;&lt;/div&gt;" style="ellipse;whiteSpace=wrap;html=1;rounded=0;" vertex="1" parent="1">
          <mxGeometry x="858.5" y="-557" width="120" height="80" as="geometry" />
        </mxCell>
        <mxCell id="EOsgOCOBXihUaQ4r7z8H-60" value="&amp;lt;&amp;lt;extend&amp;gt;&amp;gt;" style="endArrow=open;endSize=12;dashed=1;html=1;rounded=0;exitX=1;exitY=0;exitDx=0;exitDy=0;" edge="1" parent="1" source="EOsgOCOBXihUaQ4r7z8H-59" target="E6P0ZzLm57Q9IFtv4wpY-269">
          <mxGeometry width="160" relative="1" as="geometry">
            <mxPoint x="961.96" y="-355" as="sourcePoint" />
            <mxPoint x="1139.96" y="-375" as="targetPoint" />
          </mxGeometry>
        </mxCell>
        <mxCell id="EOsgOCOBXihUaQ4r7z8H-65" value="" style="endArrow=none;html=1;rounded=0;entryX=0.5;entryY=1;entryDx=0;entryDy=0;" edge="1" parent="1" source="DqBkRv8KrqaulyezYVrb-9" target="EOsgOCOBXihUaQ4r7z8H-37">
          <mxGeometry width="50" height="50" relative="1" as="geometry">
            <mxPoint x="326" y="34" as="sourcePoint" />
            <mxPoint x="466" y="-129" as="targetPoint" />
          </mxGeometry>
        </mxCell>
        <mxCell id="EOsgOCOBXihUaQ4r7z8H-66" value="Check in/out&lt;div&gt;worker&lt;/div&gt;" style="ellipse;whiteSpace=wrap;html=1;strokeWidth=6;" vertex="1" parent="1">
          <mxGeometry x="931" y="97" width="120" height="80" as="geometry" />
        </mxCell>
        <mxCell id="EOsgOCOBXihUaQ4r7z8H-67" value="" style="endArrow=none;html=1;rounded=0;exitX=1;exitY=0.5;exitDx=0;exitDy=0;" edge="1" parent="1" source="EOsgOCOBXihUaQ4r7z8H-66" target="E6P0ZzLm57Q9IFtv4wpY-114">
          <mxGeometry width="50" height="50" relative="1" as="geometry">
            <mxPoint x="788" y="189" as="sourcePoint" />
            <mxPoint x="1375" y="189" as="targetPoint" />
          </mxGeometry>
        </mxCell>
        <mxCell id="EOsgOCOBXihUaQ4r7z8H-70" value="&lt;div&gt;Προβολή&lt;/div&gt;&lt;div&gt;μενού&lt;br&gt;&lt;/div&gt;" style="ellipse;whiteSpace=wrap;html=1;rounded=0;" vertex="1" parent="1">
          <mxGeometry x="1874" y="75" width="120" height="80" as="geometry" />
        </mxCell>
        <mxCell id="EOsgOCOBXihUaQ4r7z8H-71" value="&lt;div&gt;Κάλεσμα/ενημέρωση&lt;/div&gt;&lt;div&gt;σερβιτόρου&lt;br&gt;&lt;/div&gt;" style="ellipse;whiteSpace=wrap;html=1;rounded=0;" vertex="1" parent="1">
          <mxGeometry x="424" y="175" width="120" height="80" as="geometry" />
        </mxCell>
        <mxCell id="EOsgOCOBXihUaQ4r7z8H-73" value="&amp;lt;&amp;lt;extend&amp;gt;&amp;gt;" style="endArrow=open;endSize=12;dashed=1;html=1;rounded=0;exitX=0;exitY=0.5;exitDx=0;exitDy=0;entryX=1;entryY=0.5;entryDx=0;entryDy=0;" edge="1" source="EOsgOCOBXihUaQ4r7z8H-70" parent="1">
          <mxGeometry width="160" relative="1" as="geometry">
            <mxPoint x="1224" y="192" as="sourcePoint" />
            <mxPoint x="1725" y="37" as="targetPoint" />
          </mxGeometry>
        </mxCell>
        <mxCell id="EOsgOCOBXihUaQ4r7z8H-74" value="&amp;lt;&amp;lt;extend&amp;gt;&amp;gt;" style="endArrow=open;endSize=12;dashed=1;html=1;rounded=0;exitX=0;exitY=0.5;exitDx=0;exitDy=0;entryX=1;entryY=0;entryDx=0;entryDy=0;" edge="1" parent="1">
          <mxGeometry width="160" relative="1" as="geometry">
            <mxPoint x="1779" y="-43" as="sourcePoint" />
            <mxPoint x="1707.4264068711927" y="8.715728752538553" as="targetPoint" />
          </mxGeometry>
        </mxCell>
        <mxCell id="EOsgOCOBXihUaQ4r7z8H-75" value="Σκανάρισμα &lt;br&gt;QR code" style="ellipse;whiteSpace=wrap;html=1;rounded=0;" vertex="1" parent="1">
          <mxGeometry x="1587" y="-11" width="120" height="80" as="geometry" />
        </mxCell>
        <mxCell id="EOsgOCOBXihUaQ4r7z8H-76" value="Check-in" style="ellipse;whiteSpace=wrap;html=1;strokeWidth=6;rounded=0;" vertex="1" parent="1">
          <mxGeometry x="1790" y="-108" width="120" height="80" as="geometry" />
        </mxCell>
        <mxCell id="EOsgOCOBXihUaQ4r7z8H-77" value="&lt;div&gt;Ιδιοκτήτης&amp;nbsp;&lt;/div&gt;&lt;div&gt;εστιατορίου&lt;/div&gt;" style="shape=umlActor;verticalLabelPosition=bottom;verticalAlign=top;html=1;outlineConnect=0;" vertex="1" parent="1">
          <mxGeometry x="3277.2941176470586" y="884.2352941176473" width="30" height="60" as="geometry" />
        </mxCell>
        <mxCell id="EOsgOCOBXihUaQ4r7z8H-78" value="&lt;div&gt;Πελάτης&amp;nbsp;&lt;/div&gt;&lt;div&gt;εστιατορίου&lt;/div&gt;" style="shape=umlActor;verticalLabelPosition=bottom;verticalAlign=top;html=1;outlineConnect=0;" vertex="1" parent="1">
          <mxGeometry x="2220.2941176470586" y="1092.2352941176473" width="30" height="60" as="geometry" />
        </mxCell>
        <mxCell id="EOsgOCOBXihUaQ4r7z8H-79" value="Σερβιτόρος" style="shape=umlActor;verticalLabelPosition=bottom;verticalAlign=top;html=1;outlineConnect=0;" vertex="1" parent="1">
          <mxGeometry x="2220.2941176470586" y="1417.2352941176473" width="30" height="60" as="geometry" />
        </mxCell>
        <mxCell id="EOsgOCOBXihUaQ4r7z8H-80" value="Μάγειρας" style="shape=umlActor;verticalLabelPosition=bottom;verticalAlign=top;html=1;outlineConnect=0;" vertex="1" parent="1">
          <mxGeometry x="3277.2941176470586" y="1484.2352941176473" width="30" height="60" as="geometry" />
        </mxCell>
        <mxCell id="EOsgOCOBXihUaQ4r7z8H-81" value="Ταμείας" style="shape=umlActor;verticalLabelPosition=bottom;verticalAlign=top;html=1;outlineConnect=0;" vertex="1" parent="1">
          <mxGeometry x="3277.2941176470586" y="1180.2352941176473" width="30" height="60" as="geometry" />
        </mxCell>
        <mxCell id="EOsgOCOBXihUaQ4r7z8H-82" value="Διανομέας" style="shape=umlActor;verticalLabelPosition=bottom;verticalAlign=top;html=1;outlineConnect=0;" vertex="1" parent="1">
          <mxGeometry x="3277.2941176470586" y="1310.2352941176473" width="30" height="60" as="geometry" />
        </mxCell>
        <mxCell id="EOsgOCOBXihUaQ4r7z8H-83" value="Παραγγελία" style="ellipse;whiteSpace=wrap;html=1;strokeWidth=5;" vertex="1" parent="1">
          <mxGeometry x="2668.2941176470586" y="1263.2352941176473" width="120" height="80" as="geometry" />
        </mxCell>
        <mxCell id="EOsgOCOBXihUaQ4r7z8H-84" value="&lt;div&gt;Πληρωμή&lt;/div&gt;&lt;div&gt;φαγητού&lt;br&gt;&lt;/div&gt;" style="ellipse;whiteSpace=wrap;html=1;" vertex="1" parent="1">
          <mxGeometry x="2740.2941176470586" y="1391.2352941176473" width="120" height="80" as="geometry" />
        </mxCell>
        <mxCell id="EOsgOCOBXihUaQ4r7z8H-85" value="&lt;div&gt;Δημιουργία&lt;/div&gt;&lt;div&gt;λογαριασμού&lt;br&gt;&lt;/div&gt;&lt;div&gt;υπαλλήλου&lt;/div&gt;" style="ellipse;whiteSpace=wrap;html=1;" vertex="1" parent="1">
          <mxGeometry x="2905.2941176470586" y="660.2352941176473" width="120" height="80" as="geometry" />
        </mxCell>
        <mxCell id="EOsgOCOBXihUaQ4r7z8H-86" value="&lt;div&gt;Επιλογή&lt;/div&gt;&lt;div&gt;καταστήματος&lt;br&gt;&lt;/div&gt;" style="ellipse;whiteSpace=wrap;html=1;strokeWidth=6;" vertex="1" parent="1">
          <mxGeometry x="2417.2941176470586" y="737.2352941176473" width="120" height="80" as="geometry" />
        </mxCell>
        <mxCell id="EOsgOCOBXihUaQ4r7z8H-87" value="Κράτηση" style="ellipse;whiteSpace=wrap;html=1;" vertex="1" parent="1">
          <mxGeometry x="2584.2941176470586" y="904.2352941176473" width="120" height="80" as="geometry" />
        </mxCell>
        <mxCell id="EOsgOCOBXihUaQ4r7z8H-88" value="Σκανάρισμα &lt;br&gt;QR code" style="ellipse;whiteSpace=wrap;html=1;" vertex="1" parent="1">
          <mxGeometry x="2589.2941176470586" y="1034.2352941176473" width="120" height="80" as="geometry" />
        </mxCell>
        <mxCell id="EOsgOCOBXihUaQ4r7z8H-89" value="Check-in" style="ellipse;whiteSpace=wrap;html=1;" vertex="1" parent="1">
          <mxGeometry x="2744.2941176470586" y="1154.2352941176473" width="120" height="80" as="geometry" />
        </mxCell>
        <mxCell id="EOsgOCOBXihUaQ4r7z8H-90" value="Check-out" style="ellipse;whiteSpace=wrap;html=1;" vertex="1" parent="1">
          <mxGeometry x="2584.2941176470586" y="1391.2352941176473" width="120" height="80" as="geometry" />
        </mxCell>
        <mxCell id="EOsgOCOBXihUaQ4r7z8H-91" value="&lt;div&gt;Προβολή&lt;/div&gt;&lt;div&gt;μενού&lt;br&gt;&lt;/div&gt;" style="ellipse;whiteSpace=wrap;html=1;" vertex="1" parent="1">
          <mxGeometry x="2888.2941176470586" y="1100.2352941176473" width="120" height="80" as="geometry" />
        </mxCell>
        <mxCell id="EOsgOCOBXihUaQ4r7z8H-92" style="edgeStyle=orthogonalEdgeStyle;rounded=0;orthogonalLoop=1;jettySize=auto;html=1;exitX=0;exitY=0.5;exitDx=0;exitDy=0;entryX=1;entryY=0.5;entryDx=0;entryDy=0;" edge="1" parent="1" source="EOsgOCOBXihUaQ4r7z8H-93" target="EOsgOCOBXihUaQ4r7z8H-86">
          <mxGeometry relative="1" as="geometry" />
        </mxCell>
        <mxCell id="EOsgOCOBXihUaQ4r7z8H-93" value="Περιγραφή&lt;br&gt;καταστήματος" style="ellipse;whiteSpace=wrap;html=1;align=center;dashed=1;" vertex="1" parent="1">
          <mxGeometry x="2630.2941176470586" y="791.2352941176473" width="100" height="40" as="geometry" />
        </mxCell>
        <mxCell id="EOsgOCOBXihUaQ4r7z8H-94" value="&lt;div&gt;Προβολή&lt;/div&gt;&lt;div&gt;ιστορικού παραγγελιών&lt;br&gt;&lt;/div&gt;" style="ellipse;whiteSpace=wrap;html=1;" vertex="1" parent="1">
          <mxGeometry x="2364.2941176470586" y="603.2352941176473" width="120" height="80" as="geometry" />
        </mxCell>
        <mxCell id="EOsgOCOBXihUaQ4r7z8H-95" value="&lt;div&gt;Προβολή εβδομαδιαίου&lt;/div&gt;&lt;div&gt;προγράμματος&lt;br&gt;&lt;/div&gt;" style="ellipse;whiteSpace=wrap;html=1;strokeWidth=6;" vertex="1" parent="1">
          <mxGeometry x="2740.2941176470586" y="1501.2352941176473" width="120" height="80" as="geometry" />
        </mxCell>
        <mxCell id="EOsgOCOBXihUaQ4r7z8H-96" value="&lt;div&gt;Προβολή &lt;br&gt;&lt;/div&gt;&lt;div&gt;εκκρεμών&lt;/div&gt;&lt;div&gt;Tasks&lt;/div&gt;" style="ellipse;whiteSpace=wrap;html=1;strokeWidth=6;" vertex="1" parent="1">
          <mxGeometry x="2726.2941176470586" y="1619.2352941176473" width="120" height="80" as="geometry" />
        </mxCell>
        <mxCell id="EOsgOCOBXihUaQ4r7z8H-97" value="&lt;div&gt;Κάλεσμα/ενημέρωση&lt;/div&gt;&lt;div&gt;σερβιτόρου&lt;br&gt;&lt;/div&gt;" style="ellipse;whiteSpace=wrap;html=1;" vertex="1" parent="1">
          <mxGeometry x="2514.2941176470586" y="1134.2352941176473" width="120" height="80" as="geometry" />
        </mxCell>
        <mxCell id="EOsgOCOBXihUaQ4r7z8H-98" value="&lt;div&gt;Διαχείριση&lt;/div&gt;&lt;div&gt;αποθήκης/τιμών&lt;br&gt;&lt;/div&gt;" style="ellipse;whiteSpace=wrap;html=1;strokeWidth=6;" vertex="1" parent="1">
          <mxGeometry x="2990.2941176470586" y="976.2352941176473" width="120" height="80" as="geometry" />
        </mxCell>
        <mxCell id="EOsgOCOBXihUaQ4r7z8H-99" value="" style="endArrow=none;html=1;rounded=0;exitX=0.5;exitY=0.5;exitDx=0;exitDy=0;exitPerimeter=0;entryX=0;entryY=0.5;entryDx=0;entryDy=0;" edge="1" parent="1" source="EOsgOCOBXihUaQ4r7z8H-78" target="EOsgOCOBXihUaQ4r7z8H-86">
          <mxGeometry width="50" height="50" relative="1" as="geometry">
            <mxPoint x="2238.2941176470586" y="1180.2352941176473" as="sourcePoint" />
            <mxPoint x="2661.2941176470586" y="914.2352941176473" as="targetPoint" />
          </mxGeometry>
        </mxCell>
        <mxCell id="EOsgOCOBXihUaQ4r7z8H-100" value="" style="endArrow=none;html=1;rounded=0;exitX=0.5;exitY=0.5;exitDx=0;exitDy=0;exitPerimeter=0;entryX=0;entryY=0.5;entryDx=0;entryDy=0;" edge="1" parent="1" source="EOsgOCOBXihUaQ4r7z8H-78" target="EOsgOCOBXihUaQ4r7z8H-87">
          <mxGeometry width="50" height="50" relative="1" as="geometry">
            <mxPoint x="2228.2941176470586" y="1164.2352941176473" as="sourcePoint" />
            <mxPoint x="2649.2941176470586" y="1054.2352941176473" as="targetPoint" />
          </mxGeometry>
        </mxCell>
        <mxCell id="EOsgOCOBXihUaQ4r7z8H-101" value="" style="endArrow=none;html=1;rounded=0;entryX=0;entryY=0.5;entryDx=0;entryDy=0;exitX=0.5;exitY=0.5;exitDx=0;exitDy=0;exitPerimeter=0;" edge="1" parent="1" source="EOsgOCOBXihUaQ4r7z8H-78" target="EOsgOCOBXihUaQ4r7z8H-88">
          <mxGeometry width="50" height="50" relative="1" as="geometry">
            <mxPoint x="2230.2941176470586" y="1189.2352941176473" as="sourcePoint" />
            <mxPoint x="2651.2941176470586" y="1186.2352941176473" as="targetPoint" />
          </mxGeometry>
        </mxCell>
        <mxCell id="EOsgOCOBXihUaQ4r7z8H-102" value="" style="endArrow=none;html=1;rounded=0;entryX=0;entryY=0.5;entryDx=0;entryDy=0;exitX=0.5;exitY=0.5;exitDx=0;exitDy=0;exitPerimeter=0;" edge="1" parent="1" source="EOsgOCOBXihUaQ4r7z8H-78" target="EOsgOCOBXihUaQ4r7z8H-83">
          <mxGeometry width="50" height="50" relative="1" as="geometry">
            <mxPoint x="2255.2941176470586" y="1240.4452941176473" as="sourcePoint" />
            <mxPoint x="2666.2941176470586" y="1371.4452941176473" as="targetPoint" />
          </mxGeometry>
        </mxCell>
        <mxCell id="EOsgOCOBXihUaQ4r7z8H-103" value="" style="endArrow=none;html=1;rounded=0;entryX=0;entryY=0.5;entryDx=0;entryDy=0;exitX=0.5;exitY=0.5;exitDx=0;exitDy=0;exitPerimeter=0;" edge="1" parent="1" source="EOsgOCOBXihUaQ4r7z8H-79" target="EOsgOCOBXihUaQ4r7z8H-96">
          <mxGeometry width="50" height="50" relative="1" as="geometry">
            <mxPoint x="2217.2941176470586" y="1208.2352941176473" as="sourcePoint" />
            <mxPoint x="2638.2941176470586" y="1496.2352941176473" as="targetPoint" />
          </mxGeometry>
        </mxCell>
        <mxCell id="EOsgOCOBXihUaQ4r7z8H-104" value="" style="endArrow=none;html=1;rounded=0;exitX=0.5;exitY=0.5;exitDx=0;exitDy=0;exitPerimeter=0;entryX=0;entryY=0.5;entryDx=0;entryDy=0;" edge="1" parent="1" source="EOsgOCOBXihUaQ4r7z8H-78" target="EOsgOCOBXihUaQ4r7z8H-94">
          <mxGeometry width="50" height="50" relative="1" as="geometry">
            <mxPoint x="2235.2941176470586" y="1135.2352941176473" as="sourcePoint" />
            <mxPoint x="2666.2941176470586" y="794.2352941176473" as="targetPoint" />
          </mxGeometry>
        </mxCell>
        <mxCell id="EOsgOCOBXihUaQ4r7z8H-105" value="" style="endArrow=none;html=1;rounded=0;entryX=0.5;entryY=0.5;entryDx=0;entryDy=0;entryPerimeter=0;exitX=1;exitY=0.5;exitDx=0;exitDy=0;" edge="1" parent="1" source="EOsgOCOBXihUaQ4r7z8H-98" target="EOsgOCOBXihUaQ4r7z8H-77">
          <mxGeometry width="50" height="50" relative="1" as="geometry">
            <mxPoint x="3090.2941176470586" y="1085.2352941176473" as="sourcePoint" />
            <mxPoint x="3140.2941176470586" y="1035.2352941176473" as="targetPoint" />
          </mxGeometry>
        </mxCell>
        <mxCell id="EOsgOCOBXihUaQ4r7z8H-106" value="" style="endArrow=none;html=1;rounded=0;entryX=0.5;entryY=0.5;entryDx=0;entryDy=0;entryPerimeter=0;exitX=1;exitY=0.5;exitDx=0;exitDy=0;" edge="1" parent="1" source="EOsgOCOBXihUaQ4r7z8H-83" target="EOsgOCOBXihUaQ4r7z8H-80">
          <mxGeometry width="50" height="50" relative="1" as="geometry">
            <mxPoint x="2976.2941176470586" y="1014.2352941176473" as="sourcePoint" />
            <mxPoint x="3246.2941176470586" y="1073.2352941176473" as="targetPoint" />
          </mxGeometry>
        </mxCell>
        <mxCell id="EOsgOCOBXihUaQ4r7z8H-107" value="" style="endArrow=none;html=1;rounded=0;entryX=0.5;entryY=0.5;entryDx=0;entryDy=0;entryPerimeter=0;exitX=1;exitY=0.5;exitDx=0;exitDy=0;" edge="1" parent="1" source="EOsgOCOBXihUaQ4r7z8H-83" target="EOsgOCOBXihUaQ4r7z8H-82">
          <mxGeometry width="50" height="50" relative="1" as="geometry">
            <mxPoint x="2886.2941176470586" y="1409.2352941176473" as="sourcePoint" />
            <mxPoint x="3274.2941176470586" y="1293.2352941176473" as="targetPoint" />
          </mxGeometry>
        </mxCell>
        <mxCell id="EOsgOCOBXihUaQ4r7z8H-108" value="" style="endArrow=none;html=1;rounded=0;entryX=0.5;entryY=0.5;entryDx=0;entryDy=0;entryPerimeter=0;exitX=1;exitY=0.5;exitDx=0;exitDy=0;" edge="1" parent="1" source="EOsgOCOBXihUaQ4r7z8H-83" target="EOsgOCOBXihUaQ4r7z8H-81">
          <mxGeometry width="50" height="50" relative="1" as="geometry">
            <mxPoint x="2940.2941176470586" y="1240.2352941176473" as="sourcePoint" />
            <mxPoint x="3328.2941176470586" y="1254.2352941176473" as="targetPoint" />
          </mxGeometry>
        </mxCell>
        <mxCell id="EOsgOCOBXihUaQ4r7z8H-109" value="" style="endArrow=none;html=1;rounded=0;entryX=0.5;entryY=0.5;entryDx=0;entryDy=0;entryPerimeter=0;exitX=1;exitY=0.5;exitDx=0;exitDy=0;" edge="1" parent="1" source="EOsgOCOBXihUaQ4r7z8H-84" target="EOsgOCOBXihUaQ4r7z8H-82">
          <mxGeometry width="50" height="50" relative="1" as="geometry">
            <mxPoint x="2900.2941176470586" y="1449.2352941176473" as="sourcePoint" />
            <mxPoint x="3288.2941176470586" y="1333.2352941176473" as="targetPoint" />
          </mxGeometry>
        </mxCell>
        <mxCell id="EOsgOCOBXihUaQ4r7z8H-110" value="" style="endArrow=none;html=1;rounded=0;entryX=0.5;entryY=0.5;entryDx=0;entryDy=0;entryPerimeter=0;exitX=1;exitY=0.5;exitDx=0;exitDy=0;" edge="1" parent="1" source="EOsgOCOBXihUaQ4r7z8H-84" target="EOsgOCOBXihUaQ4r7z8H-81">
          <mxGeometry width="50" height="50" relative="1" as="geometry">
            <mxPoint x="2900.2941176470586" y="1363.2352941176473" as="sourcePoint" />
            <mxPoint x="3288.2941176470586" y="1247.2352941176473" as="targetPoint" />
          </mxGeometry>
        </mxCell>
        <mxCell id="EOsgOCOBXihUaQ4r7z8H-111" value="&lt;div&gt;Διαχείριση&lt;/div&gt;&lt;div&gt;προσωπικού&lt;br&gt;&lt;/div&gt;" style="ellipse;whiteSpace=wrap;html=1;" vertex="1" parent="1">
          <mxGeometry x="2795.2941176470586" y="720.2352941176473" width="120" height="80" as="geometry" />
        </mxCell>
        <mxCell id="EOsgOCOBXihUaQ4r7z8H-112" value="" style="endArrow=none;html=1;rounded=0;entryX=0.5;entryY=0.5;entryDx=0;entryDy=0;entryPerimeter=0;exitX=1;exitY=0.5;exitDx=0;exitDy=0;" edge="1" parent="1" source="EOsgOCOBXihUaQ4r7z8H-87" target="EOsgOCOBXihUaQ4r7z8H-81">
          <mxGeometry width="50" height="50" relative="1" as="geometry">
            <mxPoint x="2914.2941176470586" y="1243.2352941176473" as="sourcePoint" />
            <mxPoint x="3302.2941176470586" y="1127.2352941176473" as="targetPoint" />
          </mxGeometry>
        </mxCell>
        <mxCell id="EOsgOCOBXihUaQ4r7z8H-113" value="" style="endArrow=none;html=1;rounded=0;exitX=1;exitY=0.5;exitDx=0;exitDy=0;entryX=0.5;entryY=0.5;entryDx=0;entryDy=0;entryPerimeter=0;" edge="1" parent="1" source="EOsgOCOBXihUaQ4r7z8H-111" target="EOsgOCOBXihUaQ4r7z8H-77">
          <mxGeometry width="50" height="50" relative="1" as="geometry">
            <mxPoint x="2996.2941176470586" y="954.2352941176473" as="sourcePoint" />
            <mxPoint x="3266.2941176470586" y="1013.2352941176473" as="targetPoint" />
          </mxGeometry>
        </mxCell>
        <mxCell id="EOsgOCOBXihUaQ4r7z8H-114" value="" style="endArrow=none;html=1;rounded=0;exitX=1;exitY=1;exitDx=0;exitDy=0;entryX=0.5;entryY=0.5;entryDx=0;entryDy=0;entryPerimeter=0;" edge="1" parent="1" source="EOsgOCOBXihUaQ4r7z8H-85" target="EOsgOCOBXihUaQ4r7z8H-77">
          <mxGeometry width="50" height="50" relative="1" as="geometry">
            <mxPoint x="2988.2941176470586" y="901.2352941176473" as="sourcePoint" />
            <mxPoint x="3249.2941176470586" y="878.2352941176473" as="targetPoint" />
          </mxGeometry>
        </mxCell>
        <mxCell id="EOsgOCOBXihUaQ4r7z8H-115" value="&lt;div&gt;Πληρωμή&lt;/div&gt;&lt;div&gt;μισθών&lt;br&gt;&lt;/div&gt;" style="ellipse;whiteSpace=wrap;html=1;" vertex="1" parent="1">
          <mxGeometry x="3047.2941176470586" y="660.2352941176473" width="120" height="80" as="geometry" />
        </mxCell>
        <mxCell id="EOsgOCOBXihUaQ4r7z8H-116" value="" style="endArrow=none;html=1;rounded=0;exitX=1;exitY=1;exitDx=0;exitDy=0;entryX=0.5;entryY=0.5;entryDx=0;entryDy=0;entryPerimeter=0;" edge="1" parent="1" source="EOsgOCOBXihUaQ4r7z8H-115" target="EOsgOCOBXihUaQ4r7z8H-77">
          <mxGeometry width="50" height="50" relative="1" as="geometry">
            <mxPoint x="3018.2941176470586" y="975.2352941176473" as="sourcePoint" />
            <mxPoint x="3279.2941176470586" y="952.2352941176473" as="targetPoint" />
          </mxGeometry>
        </mxCell>
        <mxCell id="EOsgOCOBXihUaQ4r7z8H-117" value="" style="endArrow=none;html=1;rounded=0;exitX=1;exitY=0.5;exitDx=0;exitDy=0;entryX=0.5;entryY=0.5;entryDx=0;entryDy=0;entryPerimeter=0;" edge="1" parent="1" source="EOsgOCOBXihUaQ4r7z8H-96" target="EOsgOCOBXihUaQ4r7z8H-80">
          <mxGeometry width="50" height="50" relative="1" as="geometry">
            <mxPoint x="2880.2941176470586" y="1720.2352941176473" as="sourcePoint" />
            <mxPoint x="3268.2941176470586" y="1531.2352941176473" as="targetPoint" />
          </mxGeometry>
        </mxCell>
        <mxCell id="EOsgOCOBXihUaQ4r7z8H-118" value="" style="endArrow=none;html=1;rounded=0;exitX=1;exitY=0.5;exitDx=0;exitDy=0;entryX=0.5;entryY=0.5;entryDx=0;entryDy=0;entryPerimeter=0;" edge="1" parent="1" source="EOsgOCOBXihUaQ4r7z8H-96" target="EOsgOCOBXihUaQ4r7z8H-81">
          <mxGeometry width="50" height="50" relative="1" as="geometry">
            <mxPoint x="2874.2941176470586" y="1611.7352941176473" as="sourcePoint" />
            <mxPoint x="3262.2941176470586" y="1422.7352941176473" as="targetPoint" />
          </mxGeometry>
        </mxCell>
        <mxCell id="EOsgOCOBXihUaQ4r7z8H-119" value="" style="endArrow=none;html=1;rounded=0;exitX=1;exitY=0.5;exitDx=0;exitDy=0;entryX=0.5;entryY=0.5;entryDx=0;entryDy=0;entryPerimeter=0;" edge="1" parent="1" source="EOsgOCOBXihUaQ4r7z8H-96" target="EOsgOCOBXihUaQ4r7z8H-82">
          <mxGeometry width="50" height="50" relative="1" as="geometry">
            <mxPoint x="2889.2941176470586" y="1654.7352941176473" as="sourcePoint" />
            <mxPoint x="3277.2941176470586" y="1465.7352941176473" as="targetPoint" />
          </mxGeometry>
        </mxCell>
        <mxCell id="EOsgOCOBXihUaQ4r7z8H-120" value="" style="endArrow=none;html=1;rounded=0;exitX=1;exitY=0.5;exitDx=0;exitDy=0;entryX=0.5;entryY=0.5;entryDx=0;entryDy=0;entryPerimeter=0;" edge="1" parent="1" source="EOsgOCOBXihUaQ4r7z8H-95" target="EOsgOCOBXihUaQ4r7z8H-82">
          <mxGeometry width="50" height="50" relative="1" as="geometry">
            <mxPoint x="2821.2941176470586" y="1839.2352941176473" as="sourcePoint" />
            <mxPoint x="3209.2941176470586" y="1650.2352941176473" as="targetPoint" />
          </mxGeometry>
        </mxCell>
        <mxCell id="EOsgOCOBXihUaQ4r7z8H-121" value="" style="endArrow=none;html=1;rounded=0;exitX=1;exitY=0.5;exitDx=0;exitDy=0;entryX=0.5;entryY=0.5;entryDx=0;entryDy=0;entryPerimeter=0;" edge="1" parent="1" source="EOsgOCOBXihUaQ4r7z8H-95" target="EOsgOCOBXihUaQ4r7z8H-80">
          <mxGeometry width="50" height="50" relative="1" as="geometry">
            <mxPoint x="2878.2941176470586" y="1799.2352941176473" as="sourcePoint" />
            <mxPoint x="3266.2941176470586" y="1610.2352941176473" as="targetPoint" />
          </mxGeometry>
        </mxCell>
        <mxCell id="EOsgOCOBXihUaQ4r7z8H-122" value="" style="endArrow=none;html=1;rounded=0;exitX=1;exitY=0.5;exitDx=0;exitDy=0;entryX=0.5;entryY=0.5;entryDx=0;entryDy=0;entryPerimeter=0;" edge="1" parent="1" source="EOsgOCOBXihUaQ4r7z8H-95" target="EOsgOCOBXihUaQ4r7z8H-81">
          <mxGeometry width="50" height="50" relative="1" as="geometry">
            <mxPoint x="2884.2941176470586" y="1907.7352941176473" as="sourcePoint" />
            <mxPoint x="3272.2941176470586" y="1718.7352941176473" as="targetPoint" />
          </mxGeometry>
        </mxCell>
        <mxCell id="EOsgOCOBXihUaQ4r7z8H-123" value="" style="endArrow=none;html=1;rounded=0;exitX=1;exitY=0.5;exitDx=0;exitDy=0;entryX=0.5;entryY=0.5;entryDx=0;entryDy=0;entryPerimeter=0;" edge="1" parent="1" source="EOsgOCOBXihUaQ4r7z8H-93" target="EOsgOCOBXihUaQ4r7z8H-77">
          <mxGeometry width="50" height="50" relative="1" as="geometry">
            <mxPoint x="2963.2941176470586" y="969.2352941176473" as="sourcePoint" />
            <mxPoint x="3257.2941176470586" y="880.2352941176473" as="targetPoint" />
          </mxGeometry>
        </mxCell>
        <mxCell id="EOsgOCOBXihUaQ4r7z8H-124" value="&lt;div&gt;Custom&lt;/div&gt;&lt;div&gt;εμφάνιση εστιατοριου&lt;br&gt;&lt;/div&gt;" style="ellipse;whiteSpace=wrap;html=1;" vertex="1" parent="1">
          <mxGeometry x="3468.2941176470586" y="919.2352941176473" width="120" height="80" as="geometry" />
        </mxCell>
        <mxCell id="EOsgOCOBXihUaQ4r7z8H-125" value="" style="rounded=0;whiteSpace=wrap;html=1;fillColor=none;noLabel=0;editable=1;movable=1;resizable=1;rotatable=1;deletable=1;locked=0;connectable=1;pointerEvents=0;" vertex="1" parent="1">
          <mxGeometry x="2328.2941176470586" y="543.2352941176473" width="865" height="1203" as="geometry" />
        </mxCell>
        <mxCell id="EOsgOCOBXihUaQ4r7z8H-126" value="" style="endArrow=none;html=1;rounded=0;exitX=0;exitY=0.5;exitDx=0;exitDy=0;entryX=0.5;entryY=0.5;entryDx=0;entryDy=0;entryPerimeter=0;" edge="1" parent="1" source="EOsgOCOBXihUaQ4r7z8H-124" target="EOsgOCOBXihUaQ4r7z8H-77">
          <mxGeometry width="50" height="50" relative="1" as="geometry">
            <mxPoint x="3227.2941176470586" y="1135.2352941176473" as="sourcePoint" />
            <mxPoint x="3679.2941176470586" y="803.2352941176473" as="targetPoint" />
          </mxGeometry>
        </mxCell>
        <mxCell id="EOsgOCOBXihUaQ4r7z8H-127" value="&lt;font style=&quot;font-size: 60px;&quot;&gt;Εστιατόριο&lt;/font&gt;" style="text;html=1;align=center;verticalAlign=middle;whiteSpace=wrap;rounded=0;" vertex="1" parent="1">
          <mxGeometry x="2594.2941176470586" y="561.2352941176473" width="341" height="66.5" as="geometry" />
        </mxCell>
        <mxCell id="EOsgOCOBXihUaQ4r7z8H-128" value="&lt;div&gt;Αλλαγη μηνιαίου&lt;/div&gt;&lt;div&gt;πλάνου&lt;br&gt;&lt;/div&gt;" style="ellipse;whiteSpace=wrap;html=1;" vertex="1" parent="1">
          <mxGeometry x="3477.2941176470586" y="688.2352941176473" width="120" height="80" as="geometry" />
        </mxCell>
        <mxCell id="EOsgOCOBXihUaQ4r7z8H-129" value="" style="endArrow=none;html=1;rounded=0;exitX=0;exitY=0.5;exitDx=0;exitDy=0;entryX=0.5;entryY=0.5;entryDx=0;entryDy=0;entryPerimeter=0;" edge="1" parent="1" source="EOsgOCOBXihUaQ4r7z8H-128" target="EOsgOCOBXihUaQ4r7z8H-77">
          <mxGeometry width="50" height="50" relative="1" as="geometry">
            <mxPoint x="3652.2941176470586" y="914.2352941176473" as="sourcePoint" />
            <mxPoint x="3307.2941176470586" y="874.2352941176473" as="targetPoint" />
          </mxGeometry>
        </mxCell>
        <mxCell id="EOsgOCOBXihUaQ4r7z8H-130" value="Team του eστιατοριο" style="shape=umlActor;verticalLabelPosition=bottom;verticalAlign=top;html=1;outlineConnect=0;" vertex="1" parent="1">
          <mxGeometry x="3836.2941176470586" y="904.2352941176473" width="30" height="60" as="geometry" />
        </mxCell>
        <mxCell id="EOsgOCOBXihUaQ4r7z8H-131" value="&lt;div&gt;Διαχείριση &lt;br&gt;&lt;/div&gt;&lt;div&gt;εστιατορίων&lt;br&gt;&lt;/div&gt;" style="ellipse;whiteSpace=wrap;html=1;" vertex="1" parent="1">
          <mxGeometry x="3562.2941176470586" y="791.2352941176473" width="120" height="80" as="geometry" />
        </mxCell>
        <mxCell id="EOsgOCOBXihUaQ4r7z8H-132" value="&lt;div&gt;Παροχή τεχνικής&lt;/div&gt;&lt;div&gt;υποστήριξης&lt;br&gt;&lt;/div&gt;" style="ellipse;whiteSpace=wrap;html=1;" vertex="1" parent="1">
          <mxGeometry x="3564.2941176470586" y="1034.2352941176473" width="120" height="80" as="geometry" />
        </mxCell>
        <mxCell id="EOsgOCOBXihUaQ4r7z8H-133" value="" style="endArrow=none;html=1;rounded=0;exitX=0.5;exitY=0.5;exitDx=0;exitDy=0;entryX=1;entryY=0.5;entryDx=0;entryDy=0;exitPerimeter=0;" edge="1" parent="1" source="EOsgOCOBXihUaQ4r7z8H-130" target="EOsgOCOBXihUaQ4r7z8H-131">
          <mxGeometry width="50" height="50" relative="1" as="geometry">
            <mxPoint x="4338.294117647059" y="701.2352941176473" as="sourcePoint" />
            <mxPoint x="3958.2941176470586" y="847.2352941176473" as="targetPoint" />
          </mxGeometry>
        </mxCell>
        <mxCell id="EOsgOCOBXihUaQ4r7z8H-134" value="" style="endArrow=none;html=1;rounded=0;exitX=0.5;exitY=0.5;exitDx=0;exitDy=0;entryX=1;entryY=0.5;entryDx=0;entryDy=0;exitPerimeter=0;" edge="1" parent="1" source="EOsgOCOBXihUaQ4r7z8H-130" target="EOsgOCOBXihUaQ4r7z8H-132">
          <mxGeometry width="50" height="50" relative="1" as="geometry">
            <mxPoint x="4348.294117647059" y="884.2352941176473" as="sourcePoint" />
            <mxPoint x="4030.2941176470586" y="782.2352941176473" as="targetPoint" />
          </mxGeometry>
        </mxCell>
        <mxCell id="EOsgOCOBXihUaQ4r7z8H-135" value="" style="rounded=0;whiteSpace=wrap;html=1;fillColor=none;pointerEvents=0;" vertex="1" parent="1">
          <mxGeometry x="3408.2941176470586" y="603.2352941176473" width="370" height="539" as="geometry" />
        </mxCell>
        <mxCell id="EOsgOCOBXihUaQ4r7z8H-136" value="&lt;font style=&quot;font-size: 60px;&quot;&gt;eστιατόριο&lt;/font&gt;" style="text;html=1;align=center;verticalAlign=middle;whiteSpace=wrap;rounded=0;" vertex="1" parent="1">
          <mxGeometry x="3413.2941176470586" y="611.2352941176473" width="376" height="54" as="geometry" />
        </mxCell>
        <mxCell id="EOsgOCOBXihUaQ4r7z8H-137" value="" style="endArrow=none;html=1;rounded=0;entryX=0;entryY=1;entryDx=0;entryDy=0;exitX=0.5;exitY=0.5;exitDx=0;exitDy=0;exitPerimeter=0;" edge="1" parent="1" source="EOsgOCOBXihUaQ4r7z8H-79" target="EOsgOCOBXihUaQ4r7z8H-95">
          <mxGeometry width="50" height="50" relative="1" as="geometry">
            <mxPoint x="2213.2941176470586" y="1524.2352941176473" as="sourcePoint" />
            <mxPoint x="2683.2941176470586" y="1749.2352941176473" as="targetPoint" />
          </mxGeometry>
        </mxCell>
        <mxCell id="EOsgOCOBXihUaQ4r7z8H-138" value="" style="endArrow=none;html=1;rounded=0;entryX=0;entryY=0.5;entryDx=0;entryDy=0;exitX=0.5;exitY=0.5;exitDx=0;exitDy=0;exitPerimeter=0;" edge="1" parent="1" source="EOsgOCOBXihUaQ4r7z8H-79" target="EOsgOCOBXihUaQ4r7z8H-90">
          <mxGeometry width="50" height="50" relative="1" as="geometry">
            <mxPoint x="2247.2941176470586" y="1424.2352941176473" as="sourcePoint" />
            <mxPoint x="2692.2941176470586" y="1526.2352941176473" as="targetPoint" />
          </mxGeometry>
        </mxCell>
        <mxCell id="EOsgOCOBXihUaQ4r7z8H-139" value="" style="endArrow=none;html=1;rounded=0;entryX=0;entryY=0.5;entryDx=0;entryDy=0;exitX=0.5;exitY=0.5;exitDx=0;exitDy=0;exitPerimeter=0;" edge="1" parent="1" source="EOsgOCOBXihUaQ4r7z8H-78" target="EOsgOCOBXihUaQ4r7z8H-90">
          <mxGeometry width="50" height="50" relative="1" as="geometry">
            <mxPoint x="2266.2941176470586" y="1341.2352941176473" as="sourcePoint" />
            <mxPoint x="2428.2941176470586" y="1310.2352941176473" as="targetPoint" />
          </mxGeometry>
        </mxCell>
        <mxCell id="EOsgOCOBXihUaQ4r7z8H-140" value="" style="endArrow=none;html=1;rounded=0;entryX=0;entryY=0.5;entryDx=0;entryDy=0;exitX=0.5;exitY=0.5;exitDx=0;exitDy=0;exitPerimeter=0;" edge="1" parent="1" source="EOsgOCOBXihUaQ4r7z8H-79" target="EOsgOCOBXihUaQ4r7z8H-89">
          <mxGeometry width="50" height="50" relative="1" as="geometry">
            <mxPoint x="2279.2941176470586" y="1349.2352941176473" as="sourcePoint" />
            <mxPoint x="2441.2941176470586" y="1318.2352941176473" as="targetPoint" />
          </mxGeometry>
        </mxCell>
        <mxCell id="EOsgOCOBXihUaQ4r7z8H-141" value="" style="endArrow=none;html=1;rounded=0;exitX=1;exitY=0;exitDx=0;exitDy=0;entryX=0.5;entryY=0.5;entryDx=0;entryDy=0;entryPerimeter=0;" edge="1" parent="1" source="EOsgOCOBXihUaQ4r7z8H-95" target="EOsgOCOBXihUaQ4r7z8H-77">
          <mxGeometry width="50" height="50" relative="1" as="geometry">
            <mxPoint x="2777.2941176470586" y="1074.2352941176473" as="sourcePoint" />
            <mxPoint x="3292.2941176470586" y="969.2352941176473" as="targetPoint" />
          </mxGeometry>
        </mxCell>
        <mxCell id="EOsgOCOBXihUaQ4r7z8H-142" value="Προβολη&amp;nbsp;&lt;div&gt;λογαριασμου&lt;/div&gt;" style="ellipse;whiteSpace=wrap;html=1;" vertex="1" parent="1">
          <mxGeometry x="2175.2941176470586" y="1252.2352941176473" width="120" height="80" as="geometry" />
        </mxCell>
        <mxCell id="EOsgOCOBXihUaQ4r7z8H-143" value="Αξιολογηση&lt;div&gt;εστιατοριων&lt;/div&gt;" style="ellipse;whiteSpace=wrap;html=1;" vertex="1" parent="1">
          <mxGeometry x="2420.2941176470586" y="849.2352941176473" width="120" height="80" as="geometry" />
        </mxCell>
        <mxCell id="EOsgOCOBXihUaQ4r7z8H-144" value="" style="endArrow=none;html=1;rounded=0;entryX=0;entryY=0;entryDx=0;entryDy=0;exitX=1;exitY=1;exitDx=0;exitDy=0;" edge="1" parent="1" source="EOsgOCOBXihUaQ4r7z8H-88" target="EOsgOCOBXihUaQ4r7z8H-89">
          <mxGeometry width="50" height="50" relative="1" as="geometry">
            <mxPoint x="2280.2941176470586" y="1215.2352941176473" as="sourcePoint" />
            <mxPoint x="2454.2941176470586" y="1271.2352941176473" as="targetPoint" />
          </mxGeometry>
        </mxCell>
        <mxCell id="EOsgOCOBXihUaQ4r7z8H-145" value="" style="endArrow=none;html=1;rounded=0;exitX=1;exitY=0.5;exitDx=0;exitDy=0;" edge="1" parent="1" source="EOsgOCOBXihUaQ4r7z8H-88" target="EOsgOCOBXihUaQ4r7z8H-91">
          <mxGeometry width="50" height="50" relative="1" as="geometry">
            <mxPoint x="2535.8641176470587" y="1194.5152941176473" as="sourcePoint" />
            <mxPoint x="2584.8641176470587" y="1261.5152941176473" as="targetPoint" />
          </mxGeometry>
        </mxCell>
        <mxCell id="EOsgOCOBXihUaQ4r7z8H-146" value="" style="endArrow=none;html=1;rounded=0;entryX=0.05;entryY=0.276;entryDx=0;entryDy=0;entryPerimeter=0;exitX=0.5;exitY=0.5;exitDx=0;exitDy=0;exitPerimeter=0;" edge="1" parent="1" source="EOsgOCOBXihUaQ4r7z8H-78" target="EOsgOCOBXihUaQ4r7z8H-97">
          <mxGeometry width="50" height="50" relative="1" as="geometry">
            <mxPoint x="2233.2941176470586" y="1180.2352941176473" as="sourcePoint" />
            <mxPoint x="2420.2941176470586" y="1234.2352941176473" as="targetPoint" />
          </mxGeometry>
        </mxCell>
        <mxCell id="EOsgOCOBXihUaQ4r7z8H-147" value="" style="endArrow=none;html=1;rounded=0;entryX=0;entryY=0.5;entryDx=0;entryDy=0;" edge="1" parent="1" source="EOsgOCOBXihUaQ4r7z8H-79" target="EOsgOCOBXihUaQ4r7z8H-83">
          <mxGeometry width="50" height="50" relative="1" as="geometry">
            <mxPoint x="2262.2941176470586" y="1517.2352941176473" as="sourcePoint" />
            <mxPoint x="2730.2941176470586" y="1296.2352941176473" as="targetPoint" />
          </mxGeometry>
        </mxCell>
        <mxCell id="EOsgOCOBXihUaQ4r7z8H-148" value="" style="endArrow=none;html=1;rounded=0;entryX=0;entryY=0.5;entryDx=0;entryDy=0;exitX=0.5;exitY=0.5;exitDx=0;exitDy=0;exitPerimeter=0;" edge="1" parent="1" source="EOsgOCOBXihUaQ4r7z8H-79" target="EOsgOCOBXihUaQ4r7z8H-97">
          <mxGeometry width="50" height="50" relative="1" as="geometry">
            <mxPoint x="2085.2941176470586" y="1394.2352941176473" as="sourcePoint" />
            <mxPoint x="2411.2941176470586" y="1255.2352941176473" as="targetPoint" />
          </mxGeometry>
        </mxCell>
        <mxCell id="EOsgOCOBXihUaQ4r7z8H-149" value="" style="endArrow=none;html=1;rounded=0;entryX=0;entryY=0.5;entryDx=0;entryDy=0;exitX=1;exitY=0.5;exitDx=0;exitDy=0;" edge="1" parent="1" source="EOsgOCOBXihUaQ4r7z8H-90" target="EOsgOCOBXihUaQ4r7z8H-84">
          <mxGeometry width="50" height="50" relative="1" as="geometry">
            <mxPoint x="2411.2941176470586" y="1471.2352941176473" as="sourcePoint" />
            <mxPoint x="2732.2941176470586" y="1449.2352941176473" as="targetPoint" />
          </mxGeometry>
        </mxCell>
        <mxCell id="EOsgOCOBXihUaQ4r7z8H-150" value="" style="endArrow=none;html=1;rounded=0;entryX=0.5;entryY=0;entryDx=0;entryDy=0;exitX=0.5;exitY=0.5;exitDx=0;exitDy=0;exitPerimeter=0;" edge="1" parent="1" source="EOsgOCOBXihUaQ4r7z8H-78" target="EOsgOCOBXihUaQ4r7z8H-142">
          <mxGeometry width="50" height="50" relative="1" as="geometry">
            <mxPoint x="1890.2941176470586" y="1226.2352941176473" as="sourcePoint" />
            <mxPoint x="2239.2941176470586" y="1535.2352941176473" as="targetPoint" />
          </mxGeometry>
        </mxCell>
        <mxCell id="EOsgOCOBXihUaQ4r7z8H-151" value="" style="endArrow=none;html=1;rounded=0;entryX=0.5;entryY=0.5;entryDx=0;entryDy=0;exitX=0.5;exitY=1;exitDx=0;exitDy=0;entryPerimeter=0;" edge="1" parent="1" source="EOsgOCOBXihUaQ4r7z8H-142" target="EOsgOCOBXihUaQ4r7z8H-79">
          <mxGeometry width="50" height="50" relative="1" as="geometry">
            <mxPoint x="2020.2941176470586" y="1321.2352941176473" as="sourcePoint" />
            <mxPoint x="2025.2941176470586" y="1457.2352941176473" as="targetPoint" />
          </mxGeometry>
        </mxCell>
        <mxCell id="EOsgOCOBXihUaQ4r7z8H-152" value="" style="endArrow=none;html=1;rounded=0;entryX=0.5;entryY=0.5;entryDx=0;entryDy=0;entryPerimeter=0;exitX=0.5;exitY=1;exitDx=0;exitDy=0;" edge="1" parent="1" source="EOsgOCOBXihUaQ4r7z8H-98" target="EOsgOCOBXihUaQ4r7z8H-80">
          <mxGeometry width="50" height="50" relative="1" as="geometry">
            <mxPoint x="3351.2941176470586" y="1215.2352941176473" as="sourcePoint" />
            <mxPoint x="3866.2941176470586" y="1406.2352941176473" as="targetPoint" />
          </mxGeometry>
        </mxCell>
        <mxCell id="EOsgOCOBXihUaQ4r7z8H-224" value="" style="endArrow=none;html=1;rounded=0;" edge="1" parent="1" source="DqBkRv8KrqaulyezYVrb-9" target="EOsgOCOBXihUaQ4r7z8H-71">
          <mxGeometry width="50" height="50" relative="1" as="geometry">
            <mxPoint x="371.82" y="59" as="sourcePoint" />
            <mxPoint x="523.82" y="433" as="targetPoint" />
          </mxGeometry>
        </mxCell>
        <mxCell id="EOsgOCOBXihUaQ4r7z8H-225" value="" style="endArrow=none;html=1;rounded=0;entryX=0;entryY=1;entryDx=0;entryDy=0;" edge="1" parent="1" source="DqBkRv8KrqaulyezYVrb-10" target="EOsgOCOBXihUaQ4r7z8H-71">
          <mxGeometry width="50" height="50" relative="1" as="geometry">
            <mxPoint x="338" y="61" as="sourcePoint" />
            <mxPoint x="490.00000000000006" y="435" as="targetPoint" />
          </mxGeometry>
        </mxCell>
        <mxCell id="EOsgOCOBXihUaQ4r7z8H-226" value="" style="endArrow=none;html=1;rounded=0;entryX=0;entryY=0.5;entryDx=0;entryDy=0;" edge="1" parent="1" source="DqBkRv8KrqaulyezYVrb-9" target="DqBkRv8KrqaulyezYVrb-23">
          <mxGeometry width="50" height="50" relative="1" as="geometry">
            <mxPoint x="346" y="-17.5" as="sourcePoint" />
            <mxPoint x="601" y="25.5" as="targetPoint" />
          </mxGeometry>
        </mxCell>
        <mxCell id="EOsgOCOBXihUaQ4r7z8H-227" value="&amp;lt;&amp;lt;include&amp;gt;&amp;gt;" style="endArrow=open;endSize=12;dashed=1;html=1;rounded=0;exitX=0.115;exitY=0.152;exitDx=0;exitDy=0;entryX=1;entryY=1;entryDx=0;entryDy=0;exitPerimeter=0;" edge="1" parent="1" source="DqBkRv8KrqaulyezYVrb-28" target="DqBkRv8KrqaulyezYVrb-23">
          <mxGeometry width="160" relative="1" as="geometry">
            <mxPoint x="779" y="-15" as="sourcePoint" />
            <mxPoint x="691" y="27" as="targetPoint" />
          </mxGeometry>
        </mxCell>
        <mxCell id="EOsgOCOBXihUaQ4r7z8H-229" value="&amp;lt;&amp;lt;include&amp;gt;&amp;gt;" style="endArrow=open;endSize=12;dashed=1;html=1;rounded=0;exitX=1;exitY=1;exitDx=0;exitDy=0;entryX=0.111;entryY=0.165;entryDx=0;entryDy=0;entryPerimeter=0;" edge="1" parent="1" source="DqBkRv8KrqaulyezYVrb-28" target="EOsgOCOBXihUaQ4r7z8H-66">
          <mxGeometry width="160" relative="1" as="geometry">
            <mxPoint x="833" y="69" as="sourcePoint" />
            <mxPoint x="745" y="111" as="targetPoint" />
          </mxGeometry>
        </mxCell>
        <mxCell id="EOsgOCOBXihUaQ4r7z8H-230" value="&lt;div&gt;Επιλογή&lt;/div&gt;&lt;div&gt;καταστήματος&lt;br&gt;&lt;/div&gt;" style="ellipse;whiteSpace=wrap;html=1;strokeWidth=6;rounded=0;" vertex="1" parent="1">
          <mxGeometry x="364" y="1370.24" width="120" height="80" as="geometry" />
        </mxCell>
        <mxCell id="EOsgOCOBXihUaQ4r7z8H-231" value="Κράτηση" style="ellipse;whiteSpace=wrap;html=1;rounded=0;strokeWidth=6;" vertex="1" parent="1">
          <mxGeometry x="790" y="1370.24" width="120" height="80" as="geometry" />
        </mxCell>
        <mxCell id="EOsgOCOBXihUaQ4r7z8H-232" value="&lt;div&gt;Προτασεις&lt;/div&gt;&lt;div&gt;φαγητων&lt;/div&gt;" style="ellipse;whiteSpace=wrap;html=1;rounded=0;strokeWidth=6;" vertex="1" parent="1">
          <mxGeometry x="364" y="1501.24" width="120" height="80" as="geometry" />
        </mxCell>
        <mxCell id="EOsgOCOBXihUaQ4r7z8H-233" value="&lt;div&gt;Διαχείριση&lt;br&gt;&lt;/div&gt;&lt;div&gt;λογαριασμού&lt;/div&gt;&lt;div&gt;εστιατοριου&lt;/div&gt;" style="ellipse;whiteSpace=wrap;html=1;strokeWidth=6;" vertex="1" parent="1">
          <mxGeometry x="872" y="839.24" width="120" height="80" as="geometry" />
        </mxCell>
        <mxCell id="EOsgOCOBXihUaQ4r7z8H-234" value="&lt;div&gt;Διαχείριση&lt;/div&gt;&lt;div&gt;αποθήκης&lt;/div&gt;" style="ellipse;whiteSpace=wrap;html=1;strokeWidth=6;rounded=0;" vertex="1" parent="1">
          <mxGeometry x="872" y="1005.76" width="120" height="80" as="geometry" />
        </mxCell>
        <mxCell id="EOsgOCOBXihUaQ4r7z8H-235" value="&lt;div&gt;Προβολή εβδομαδιαίου&lt;/div&gt;&lt;div&gt;προγράμματος&lt;br&gt;&lt;/div&gt;" style="ellipse;whiteSpace=wrap;html=1;strokeWidth=6;rounded=0;" vertex="1" parent="1">
          <mxGeometry x="684" y="908" width="120" height="80" as="geometry" />
        </mxCell>
        <mxCell id="EOsgOCOBXihUaQ4r7z8H-236" value="Check in/out&lt;div&gt;worker&lt;/div&gt;" style="ellipse;whiteSpace=wrap;html=1;strokeWidth=6;" vertex="1" parent="1">
          <mxGeometry x="1020" y="919.24" width="120" height="80" as="geometry" />
        </mxCell>
        <mxCell id="EOsgOCOBXihUaQ4r7z8H-237" value="&lt;div&gt;Προβολή &lt;br&gt;&lt;/div&gt;&lt;div&gt;εκκρεμών&lt;/div&gt;&lt;div&gt;Tasks&lt;/div&gt;" style="ellipse;whiteSpace=wrap;html=1;strokeWidth=6;rounded=0;" vertex="1" parent="1">
          <mxGeometry x="577" y="1370.24" width="120" height="80" as="geometry" />
        </mxCell>
        <mxCell id="EOsgOCOBXihUaQ4r7z8H-238" value="Παραγγελία" style="ellipse;whiteSpace=wrap;html=1;strokeWidth=5;rounded=0;" vertex="1" parent="1">
          <mxGeometry x="987" y="1370.24" width="120" height="80" as="geometry" />
        </mxCell>
        <mxCell id="EOsgOCOBXihUaQ4r7z8H-239" value="Check-in" style="ellipse;whiteSpace=wrap;html=1;strokeWidth=6;rounded=0;" vertex="1" parent="1">
          <mxGeometry x="579" y="1497" width="120" height="80" as="geometry" />
        </mxCell>
        <mxCell id="EOsgOCOBXihUaQ4r7z8H-240" value="Check-out" style="ellipse;whiteSpace=wrap;html=1;strokeWidth=6;rounded=0;" vertex="1" parent="1">
          <mxGeometry x="786" y="1497" width="120" height="80" as="geometry" />
        </mxCell>
      </root>
    </mxGraphModel>
  </diagram>
</mxfile>
